<?xml version="1.0" encoding="UTF-8" standalone="no"?>
<!DOCTYPE svg PUBLIC "-//W3C//DTD SVG 1.1//EN" "http://www.w3.org/Graphics/SVG/1.1/DTD/svg11.dtd">
<svg width="2666" height="1004" viewBox="0 0 2666 1004" version="1.1" xmlns="http://www.w3.org/2000/svg" xmlns:xlink="http://www.w3.org/1999/xlink" xml:space="preserve" xmlns:serif="http://www.serif.com/" style="fill-rule:evenodd;clip-rule:evenodd;stroke-linejoin:round;stroke-miterlimit:2;">
    <g transform="matrix(1,0,0,1,-667.229625,-998.274762)">
        <g transform="matrix(10.346094,0,0,10.346094,-9647.325889,-1976.287516)">
            <g transform="matrix(0.494897,0,0,0.494897,1083.04716,329.80998)">
                <path d="M21.733,1.01L14.533,1.01C13.975,1.01 13.523,0.558 13.523,0L13.523,-34.99L0.933,-34.99C0.375,-34.99 -0.077,-35.442 -0.077,-36L-0.077,-42.2C-0.077,-42.758 0.375,-43.211 0.933,-43.211L35.4,-43.211C35.958,-43.211 36.41,-42.758 36.41,-42.2L36.41,-36C36.41,-35.442 35.958,-34.99 35.4,-34.99L22.744,-34.99L22.744,-0C22.744,0.558 22.291,1.01 21.733,1.01ZM68.334,1.01L40.734,1.01C40.176,1.01 39.723,0.558 39.723,0L39.723,-42.267C39.723,-42.825 40.176,-43.277 40.734,-43.277L68.734,-43.277C69.292,-43.277 69.744,-42.825 69.744,-42.267L69.744,-36C69.744,-35.442 69.292,-34.99 68.734,-34.99L48.944,-34.99L48.944,-25.944L67.267,-25.944C67.825,-25.944 68.277,-25.491 68.277,-24.933L68.277,-19C68.277,-18.442 67.825,-17.99 67.267,-17.99L48.944,-17.99L48.944,-7.277L68.334,-7.277C68.892,-7.277 69.344,-6.825 69.344,-6.267L69.344,-0C69.344,0.558 68.892,1.01 68.334,1.01Z" style="fill:rgb(13,114,51);"/>
            </g>
            <g transform="matrix(0.494897,0,0,0.494897,1083.04716,329.80998)">
                <path d="M94.867,-5.6C97.534,-1.867 100.734,0.667 106.401,0.667L109.667,0.667L109.667,-5.267L108.334,-5.267C104.801,-5.267 102.801,-6.933 101.667,-8.6L96,-16.467C101.467,-17.067 107.134,-21.4 107.134,-29.133C107.134,-39.467 99.334,-42.2 90.134,-42.2L75.134,-42.2L75.134,0L82.334,0L82.334,-15.467L87.934,-15.467L94.867,-5.6ZM82.334,-21.4L82.334,-36L89.467,-36C95.934,-36 99.934,-35 99.934,-29.133C99.934,-22.2 94.6,-21.4 88.467,-21.4L82.334,-21.4Z" style="fill:rgb(13,114,51);fill-rule:nonzero;"/>
            </g>
            <g transform="matrix(0.494897,0,0,0.494897,1083.04716,329.80998)">
                <path d="M94.041,-5.019L87.409,-14.456L83.344,-14.456L83.344,-0C83.344,0.558 82.892,1.01 82.334,1.01L75.134,1.01C74.576,1.01 74.123,0.558 74.123,0L74.123,-42.2C74.123,-42.758 74.576,-43.211 75.134,-43.211L90.134,-43.211C95.946,-43.211 101.206,-42.103 104.501,-38.924C106.758,-36.747 108.144,-33.605 108.144,-29.133C108.144,-21.561 103.105,-17.014 97.763,-15.748L102.487,-9.191L102.503,-9.168C103.492,-7.713 105.248,-6.277 108.334,-6.277L109.667,-6.277C110.225,-6.277 110.678,-5.825 110.678,-5.267L110.678,0.667C110.678,1.225 110.225,1.677 109.667,1.677L106.401,1.677C100.335,1.677 96.899,-1.017 94.045,-5.013L94.041,-5.019ZM95.691,-6.185C98.17,-2.716 101.134,-0.344 106.401,-0.344L108.657,-0.344L108.657,-4.256L108.334,-4.256C104.363,-4.256 102.12,-6.144 100.841,-8.018L95.181,-15.876C94.971,-16.168 94.931,-16.549 95.077,-16.877C95.223,-17.206 95.533,-17.432 95.89,-17.471C100.92,-18.023 106.124,-22.019 106.124,-29.133C106.124,-32.929 105.014,-35.622 103.098,-37.47C100.134,-40.33 95.362,-41.19 90.134,-41.19L76.144,-41.19L76.144,-1.01L81.323,-1.01L81.323,-15.467C81.323,-16.025 81.776,-16.477 82.334,-16.477L87.934,-16.477C88.263,-16.477 88.571,-16.317 88.76,-16.048L95.691,-6.185ZM81.323,-21.4L81.323,-36C81.323,-36.558 81.776,-37.01 82.334,-37.01L89.467,-37.01C91.829,-37.01 93.875,-36.874 95.537,-36.445C97.395,-35.966 98.805,-35.12 99.728,-33.776C100.503,-32.647 100.944,-31.144 100.944,-29.133C100.944,-26.784 100.372,-25.066 99.425,-23.8C98.311,-22.31 96.659,-21.425 94.656,-20.941C92.83,-20.499 90.7,-20.39 88.467,-20.39L82.334,-20.39C81.776,-20.39 81.323,-20.842 81.323,-21.4ZM83.344,-22.41L88.467,-22.41C90.528,-22.41 92.495,-22.497 94.181,-22.905C95.691,-23.27 96.967,-23.887 97.807,-25.011C98.536,-25.985 98.924,-27.323 98.924,-29.133C98.924,-30.643 98.644,-31.784 98.062,-32.632C97.402,-33.594 96.361,-34.146 95.033,-34.489C93.509,-34.881 91.632,-34.99 89.467,-34.99L83.344,-34.99L83.344,-22.41Z" style="fill:rgb(13,114,51);"/>
            </g>
            <g transform="matrix(0.494897,0,0,0.494897,1083.04716,329.80998)">
                <path d="M134.534,-5.6L127.601,-15.467L122.001,-15.467L122.001,0L114.801,0L114.801,-42.2L129.801,-42.2C139.001,-42.2 146.801,-39.467 146.801,-29.133C146.801,-21.4 141.134,-17.067 135.667,-16.467L141.334,-8.6C142.467,-6.933 144.467,-5.267 148.001,-5.267L149.334,-5.267L149.334,0.667L146.067,0.667C140.401,0.667 137.201,-1.867 134.534,-5.6ZM122.001,-21.4L128.134,-21.4C134.267,-21.4 139.601,-22.2 139.601,-29.133C139.601,-35 135.601,-36 129.134,-36L122.001,-36L122.001,-21.4Z" style="fill:rgb(13,114,51);"/>
            </g>
            <g transform="matrix(0.494897,0,0,0.494897,1083.04716,329.80998)">
                <path d="M133.707,-5.019L127.076,-14.456L123.011,-14.456L123.011,0C123.011,0.558 122.559,1.01 122.001,1.01L114.801,1.01C114.243,1.01 113.79,0.558 113.79,0L113.79,-42.2C113.79,-42.758 114.243,-43.211 114.801,-43.211L129.801,-43.211C135.613,-43.211 140.873,-42.103 144.168,-38.924C146.425,-36.747 147.811,-33.605 147.811,-29.133C147.811,-21.561 142.772,-17.014 137.43,-15.748L142.154,-9.191L142.169,-9.168C143.159,-7.713 144.915,-6.277 148.001,-6.277L149.334,-6.277C149.892,-6.277 150.344,-5.825 150.344,-5.267L150.344,0.667C150.344,1.225 149.892,1.677 149.334,1.677L146.067,1.677C140.002,1.677 136.566,-1.017 133.712,-5.013L133.707,-5.019ZM135.358,-6.185C137.836,-2.716 140.801,-0.344 146.067,-0.344L148.324,-0.344L148.324,-4.256L148.001,-4.256C144.029,-4.256 141.787,-6.144 140.508,-8.018L134.848,-15.876C134.638,-16.168 134.598,-16.549 134.744,-16.877C134.89,-17.206 135.2,-17.432 135.557,-17.471C140.587,-18.023 145.79,-22.019 145.79,-29.133C145.79,-32.929 144.681,-35.622 142.765,-37.47C139.801,-40.33 135.029,-41.19 129.801,-41.19L115.811,-41.19L115.811,-1.01L120.99,-1.01L120.99,-15.467C120.99,-16.025 121.443,-16.477 122.001,-16.477L127.601,-16.477C127.93,-16.477 128.238,-16.317 128.427,-16.048L135.358,-6.185ZM120.99,-21.4L120.99,-36C120.99,-36.558 121.443,-37.01 122.001,-37.01L129.134,-37.01C131.496,-37.01 133.541,-36.874 135.204,-36.445C137.062,-35.966 138.472,-35.12 139.395,-33.776C140.17,-32.647 140.611,-31.144 140.611,-29.133C140.611,-26.784 140.038,-25.066 139.092,-23.8C137.978,-22.31 136.326,-21.425 134.323,-20.941C132.497,-20.499 130.367,-20.39 128.134,-20.39L122.001,-20.39C121.443,-20.39 120.99,-20.842 120.99,-21.4ZM123.011,-22.41L128.134,-22.41C130.195,-22.41 132.162,-22.497 133.848,-22.905C135.358,-23.27 136.634,-23.887 137.474,-25.011C138.203,-25.985 138.59,-27.323 138.59,-29.133C138.59,-30.643 138.311,-31.784 137.729,-32.632C137.069,-33.594 136.028,-34.146 134.7,-34.489C133.176,-34.881 131.299,-34.99 129.134,-34.99L123.011,-34.99L123.011,-22.41Z" style="fill:rgb(13,114,51);"/>
            </g>
            <g transform="matrix(0.494897,0,0,0.494897,1084.125743,329.80998)">
                <path d="M157.801,1.01L150.267,1.01C149.938,1.01 149.629,0.849 149.44,0.579C149.251,0.309 149.205,-0.037 149.318,-0.346L164.718,-42.547C164.864,-42.945 165.243,-43.211 165.667,-43.211L176.601,-43.211C177.025,-43.211 177.404,-42.945 177.55,-42.547L192.95,-0.346C193.063,-0.037 193.018,0.309 192.829,0.579C192.64,0.849 192.331,1.01 192.001,1.01L184.401,1.01C183.976,1.01 183.596,0.744 183.451,0.344L179.826,-9.656L162.376,-9.656L158.751,0.344C158.606,0.744 158.226,1.01 157.801,1.01ZM165.311,-17.877L176.895,-17.877L171.13,-33.838L165.311,-17.877Z" style="fill:rgb(13,114,51);"/>
            </g>
            <g transform="matrix(0.494897,0,0,0.494897,1176.968507,329.80998)">
                <path d="M21.733,1.01L14.533,1.01C13.975,1.01 13.523,0.558 13.523,0L13.523,-34.99L0.933,-34.99C0.375,-34.99 -0.077,-35.442 -0.077,-36L-0.077,-42.2C-0.077,-42.758 0.375,-43.211 0.933,-43.211L35.4,-43.211C35.958,-43.211 36.41,-42.758 36.41,-42.2L36.41,-36C36.41,-35.442 35.958,-34.99 35.4,-34.99L22.744,-34.99L22.744,-0C22.744,0.558 22.291,1.01 21.733,1.01Z" style="fill:rgb(13,114,51);"/>
            </g>
            <g transform="matrix(0.494897,0,0,0.494897,1176.968507,329.80998)">
                <path d="M68.334,1.01L40.734,1.01C40.176,1.01 39.724,0.558 39.724,0L39.724,-42.267C39.724,-42.825 40.176,-43.277 40.734,-43.277L68.734,-43.277C69.292,-43.277 69.744,-42.825 69.744,-42.267L69.744,-36C69.744,-35.442 69.292,-34.99 68.734,-34.99L48.944,-34.99L48.944,-25.944L67.267,-25.944C67.825,-25.944 68.278,-25.491 68.278,-24.933L68.278,-19C68.278,-18.442 67.825,-17.99 67.267,-17.99L48.944,-17.99L48.944,-7.277L68.334,-7.277C68.892,-7.277 69.344,-6.825 69.344,-6.267L69.344,0C69.344,0.558 68.892,1.01 68.334,1.01Z" style="fill:rgb(13,114,51);"/>
            </g>
            <g transform="matrix(0.494897,0,0,0.494897,1176.968507,329.80998)">
                <path d="M107.267,-14.877L114.4,-14.877C114.693,-14.877 114.972,-14.75 115.164,-14.528C115.356,-14.306 115.442,-14.012 115.4,-13.722C113.996,-4.03 105.703,1.677 94.467,1.677C87.359,1.677 81.602,-0.716 77.613,-4.775C73.624,-8.834 71.39,-14.574 71.39,-21.333C71.39,-33.61 80.168,-43.944 94.467,-43.944C105.482,-43.944 113.916,-37.973 115.529,-28.571C115.58,-28.278 115.498,-27.977 115.306,-27.749C115.114,-27.521 114.831,-27.39 114.534,-27.39L107.334,-27.39C106.903,-27.39 106.519,-27.663 106.379,-28.07C104.653,-33.062 100.173,-35.457 94.133,-35.457C86.305,-35.457 80.61,-29.534 80.61,-21.333C80.61,-13.124 86.297,-6.81 94.133,-6.81C100.171,-6.81 104.587,-9.207 106.312,-14.197C106.453,-14.604 106.836,-14.877 107.267,-14.877Z" style="fill:rgb(13,114,51);"/>
            </g>
            <g transform="matrix(0.494897,0,0,0.494897,1176.968507,329.80998)">
                <path d="M127.8,1.01L120.6,1.01C120.042,1.01 119.59,0.558 119.59,0L119.59,-42.267C119.59,-42.825 120.042,-43.277 120.6,-43.277L127.8,-43.277C128.358,-43.277 128.811,-42.825 128.811,-42.267L128.811,-25.544L147.523,-25.544L147.523,-42.267C147.523,-42.825 147.976,-43.277 148.534,-43.277L155.734,-43.277C156.292,-43.277 156.744,-42.825 156.744,-42.267L156.744,-0C156.744,0.558 156.292,1.01 155.734,1.01L148.534,1.01C147.976,1.01 147.523,0.558 147.523,0L147.523,-17.256L128.811,-17.256L128.811,0C128.811,0.558 128.358,1.01 127.8,1.01Z" style="fill:rgb(13,114,51);"/>
            </g>
            <g transform="matrix(0.494897,0,0,0.494897,1083.04716,363.102227)">
                <path d="M7.667,1.01L0.133,1.01C-0.196,1.01 -0.505,0.849 -0.695,0.579C-0.884,0.309 -0.929,-0.037 -0.816,-0.346L14.584,-42.547C14.73,-42.945 15.109,-43.211 15.533,-43.211L26.467,-43.211C26.891,-43.211 27.27,-42.945 27.416,-42.547L42.816,-0.346C42.929,-0.037 42.884,0.309 42.695,0.579C42.506,0.849 42.197,1.01 41.867,1.01L34.267,1.01C33.842,1.01 33.462,0.744 33.317,0.344L29.692,-9.656L12.242,-9.656L8.617,0.344C8.472,0.744 8.092,1.01 7.667,1.01ZM15.177,-17.877L26.761,-17.877L20.996,-33.838L15.177,-17.877Z" style="fill:rgb(13,114,51);"/>
            </g>
            <g transform="matrix(0.494897,0,0,0.494897,1103.305293,363.102227)">
                <path d="M25.067,1.677C10.925,1.677 1.056,-7.752 1.056,-21.267C1.056,-33.749 10.386,-43.947 24.472,-43.877C35.786,-43.807 44.403,-38.887 45.668,-29.4C45.707,-29.112 45.619,-28.82 45.427,-28.601C45.235,-28.382 44.958,-28.257 44.667,-28.257L37.6,-28.257C37.152,-28.257 36.757,-28.552 36.631,-28.982C35.281,-33.583 29.988,-35.523 24.467,-35.523C16.001,-35.523 10.277,-29.608 10.277,-21.267C10.277,-12.971 16.833,-6.677 25.067,-6.677C30.7,-6.677 36.525,-9.997 35.916,-16.523L22,-16.523C21.442,-16.523 20.99,-16.975 20.99,-17.533L20.99,-23.333C20.99,-23.891 21.442,-24.344 22,-24.344L42.734,-24.344C43.163,-24.344 43.546,-24.072 43.688,-23.666C45.866,-17.412 45.339,-11.091 42.22,-6.33C39.104,-1.572 33.388,1.677 25.067,1.677Z" style="fill:rgb(13,114,51);"/>
            </g>
            <g transform="matrix(0.494897,0,0,0.494897,1103.305293,363.102227)">
                <path d="M70.774,-5.019L64.142,-14.456L60.077,-14.456L60.077,-0C60.077,0.558 59.625,1.01 59.067,1.01L51.867,1.01C51.309,1.01 50.857,0.558 50.857,0L50.857,-42.2C50.857,-42.758 51.309,-43.211 51.867,-43.211L66.867,-43.211C72.679,-43.211 77.939,-42.103 81.234,-38.924C83.491,-36.747 84.877,-33.605 84.877,-29.133C84.877,-21.561 79.838,-17.014 74.496,-15.748L79.22,-9.191L79.236,-9.168C80.225,-7.713 81.982,-6.277 85.067,-6.277L86.4,-6.277C86.958,-6.277 87.411,-5.825 87.411,-5.267L87.411,0.667C87.411,1.225 86.958,1.677 86.4,1.677L83.134,1.677C77.068,1.677 73.633,-1.017 70.778,-5.013L70.774,-5.019ZM60.077,-22.41L65.2,-22.41C67.261,-22.41 69.228,-22.497 70.915,-22.905C72.425,-23.27 73.7,-23.887 74.54,-25.011C75.269,-25.985 75.657,-27.323 75.657,-29.133C75.657,-30.643 75.378,-31.784 74.796,-32.632C74.135,-33.594 73.095,-34.146 71.766,-34.489C70.242,-34.881 68.365,-34.99 66.2,-34.99L60.077,-34.99L60.077,-22.41Z" style="fill:rgb(13,114,51);"/>
            </g>
            <g transform="matrix(0.494897,0,0,0.494897,1103.305293,363.102227)">
                <path d="M88.323,-21.067C88.323,-34.589 98.97,-43.877 111.934,-43.877C124.97,-43.877 135.411,-34.59 135.411,-21.067C135.411,-7.612 124.97,1.677 111.934,1.677C98.969,1.677 88.323,-7.614 88.323,-21.067ZM111.934,-6.877C120.025,-6.877 126.124,-12.976 126.124,-21.067C126.124,-29.221 120.026,-35.323 111.934,-35.323C103.777,-35.323 97.611,-29.223 97.611,-21.067C97.611,-12.974 103.778,-6.877 111.934,-6.877Z" style="fill:rgb(13,114,51);"/>
            </g>
            <g transform="matrix(0.222903,0,0,0.222903,877.224964,88.240274)">
                <g transform="matrix(14.284144,0,0,31.725005,-51822.595359,-9724.059719)">
                    <g transform="matrix(0.596685,0,0,0.268657,168.145438,-0.220699)">
                        <path d="M5895.527,1246.633C5895.527,1250.528 5893.98,1254.264 5891.225,1257.018C5888.471,1259.772 5884.736,1261.32 5880.841,1261.32L5861.473,1261.319C5861.473,1257.424 5863.02,1253.689 5865.775,1250.934C5868.529,1248.18 5872.264,1246.633 5876.159,1246.633L5895.527,1246.633Z" style="fill:rgb(13,114,51);stroke:rgb(13,114,51);stroke-width:0.05px;"/>
                    </g>
                    <g transform="matrix(0.596685,0,0,0.268657,168.145438,-0.220699)">
                        <path d="M5869.782,1266C5873.304,1266 5876.16,1268.856 5876.16,1272.378L5876.159,1297.633C5872.264,1297.633 5868.529,1296.086 5865.775,1293.331C5863.02,1290.577 5861.473,1286.842 5861.473,1282.947L5861.473,1266L5869.782,1266Z" style="fill:rgb(13,114,51);stroke:rgb(13,114,51);stroke-width:0.05px;"/>
                    </g>
                    <g transform="matrix(0.596685,0,0,0.268657,168.145438,-0.220699)">
                        <path d="M5887.24,1266C5885.543,1266 5883.915,1266.674 5882.715,1267.875C5881.514,1269.075 5880.84,1270.703 5880.84,1272.4L5880.841,1290.29C5884.736,1290.29 5888.471,1288.742 5891.225,1285.988C5893.98,1283.234 5895.527,1279.499 5895.527,1275.604L5895.527,1266L5887.24,1266Z" style="fill:rgb(13,114,51);stroke:rgb(13,114,51);stroke-width:0.05px;"/>
                    </g>
                </g>
            </g>
        </g>
    </g>
</svg>
