<?xml version="1.0" encoding="UTF-8" standalone="no"?>
<!DOCTYPE svg PUBLIC "-//W3C//DTD SVG 1.1//EN" "http://www.w3.org/Graphics/SVG/1.1/DTD/svg11.dtd">
<svg width="2669" height="1017" viewBox="0 0 2669 1017" version="1.1" xmlns="http://www.w3.org/2000/svg" xmlns:xlink="http://www.w3.org/1999/xlink" xml:space="preserve" xmlns:serif="http://www.serif.com/" style="fill-rule:evenodd;clip-rule:evenodd;stroke-linejoin:round;stroke-miterlimit:2;">
    <g transform="matrix(1,0,0,1,-665.521239,-991.651885)">
        <g transform="matrix(10.333152,0,0,10.333152,-13030.000924,-1971.939004)">
            <path d="M1422.949,330.31L1419.386,330.31C1419.11,330.31 1418.886,330.086 1418.886,329.81L1418.886,312.494L1412.655,312.494C1412.379,312.494 1412.155,312.27 1412.155,311.994L1412.155,308.925C1412.155,308.649 1412.379,308.425 1412.655,308.425L1429.713,308.425C1429.989,308.425 1430.213,308.649 1430.213,308.925L1430.213,311.994C1430.213,312.27 1429.989,312.494 1429.713,312.494L1423.449,312.494L1423.449,329.81C1423.449,330.086 1423.226,330.31 1422.949,330.31ZM1446.012,330.31L1432.352,330.31C1432.076,330.31 1431.852,330.086 1431.852,329.81L1431.852,308.892C1431.852,308.616 1432.076,308.392 1432.352,308.392L1446.21,308.392C1446.486,308.392 1446.71,308.616 1446.71,308.892L1446.71,311.994C1446.71,312.27 1446.486,312.494 1446.21,312.494L1436.416,312.494L1436.416,316.97L1445.484,316.97C1445.76,316.97 1445.984,317.194 1445.984,317.47L1445.984,320.407C1445.984,320.683 1445.76,320.907 1445.484,320.907L1436.416,320.907L1436.416,326.209L1446.012,326.209C1446.288,326.209 1446.512,326.432 1446.512,326.709L1446.512,329.81C1446.512,330.086 1446.288,330.31 1446.012,330.31ZM1458.734,327.326L1455.452,322.656L1453.44,322.656L1453.44,329.81C1453.44,330.086 1453.216,330.31 1452.94,330.31L1449.377,330.31C1449.101,330.31 1448.877,330.086 1448.877,329.81L1448.877,308.925C1448.877,308.649 1449.101,308.425 1449.377,308.425L1456.801,308.425C1459.677,308.425 1462.28,308.973 1463.911,310.547C1465.028,311.624 1465.714,313.179 1465.714,315.392C1465.714,319.14 1463.22,321.39 1460.576,322.016L1462.914,325.262L1462.922,325.273C1463.412,325.993 1464.281,326.704 1465.808,326.704L1466.468,326.704C1466.744,326.704 1466.968,326.927 1466.968,327.204L1466.968,330.14C1466.968,330.416 1466.744,330.64 1466.468,330.64L1464.851,330.64C1461.849,330.64 1460.149,329.307 1458.736,327.329L1458.734,327.326ZM1453.44,318.719L1455.976,318.719C1456.996,318.719 1457.969,318.676 1458.804,318.474C1459.551,318.294 1460.182,317.988 1460.598,317.432C1460.959,316.95 1461.151,316.288 1461.151,315.392C1461.151,314.645 1461.012,314.08 1460.724,313.66C1460.398,313.185 1459.883,312.911 1459.225,312.742C1458.471,312.547 1457.542,312.494 1456.471,312.494L1453.44,312.494L1453.44,318.719ZM1478.365,327.326L1475.083,322.656L1473.071,322.656L1473.071,329.81C1473.071,330.086 1472.847,330.31 1472.571,330.31L1469.008,330.31C1468.732,330.31 1468.508,330.086 1468.508,329.81L1468.508,308.925C1468.508,308.649 1468.732,308.425 1469.008,308.425L1476.432,308.425C1479.308,308.425 1481.911,308.973 1483.542,310.547C1484.659,311.624 1485.345,313.179 1485.345,315.392C1485.345,319.14 1482.851,321.39 1480.207,322.016L1482.545,325.262L1482.553,325.273C1483.043,325.993 1483.912,326.704 1485.439,326.704L1486.099,326.704C1486.375,326.704 1486.599,326.927 1486.599,327.204L1486.599,330.14C1486.599,330.416 1486.375,330.64 1486.099,330.64L1484.482,330.64C1481.48,330.64 1479.78,329.307 1478.367,327.329L1478.365,327.326ZM1473.071,318.719L1475.607,318.719C1476.627,318.719 1477.6,318.676 1478.435,318.474C1479.182,318.294 1479.813,317.988 1480.229,317.432C1480.59,316.95 1480.782,316.288 1480.782,315.392C1480.782,314.645 1480.643,314.08 1480.355,313.66C1480.029,313.185 1479.514,312.911 1478.856,312.742C1478.102,312.547 1477.173,312.494 1476.102,312.494L1473.071,312.494L1473.071,318.719ZM1491.367,330.31L1487.639,330.31C1487.476,330.31 1487.323,330.23 1487.229,330.097C1487.136,329.963 1487.113,329.792 1487.169,329.639L1494.791,308.754C1494.863,308.556 1495.051,308.425 1495.261,308.425L1500.671,308.425C1500.882,308.425 1501.069,308.556 1501.141,308.754L1508.763,329.639C1508.819,329.792 1508.796,329.963 1508.703,330.097C1508.609,330.23 1508.456,330.31 1508.293,330.31L1504.532,330.31C1504.321,330.31 1504.133,330.178 1504.062,329.98L1502.267,325.031L1493.632,325.031L1491.837,329.98C1491.766,330.178 1491.578,330.31 1491.367,330.31ZM1495.084,320.963L1500.817,320.963L1497.964,313.063L1495.084,320.963ZM1516.871,330.31L1513.307,330.31C1513.031,330.31 1512.807,330.086 1512.807,329.81L1512.807,312.494L1506.577,312.494C1506.301,312.494 1506.077,312.27 1506.077,311.994L1506.077,308.925C1506.077,308.649 1506.301,308.425 1506.577,308.425L1523.634,308.425C1523.911,308.425 1524.134,308.649 1524.134,308.925L1524.134,311.994C1524.134,312.27 1523.911,312.494 1523.634,312.494L1517.371,312.494L1517.371,329.81C1517.371,330.086 1517.147,330.31 1516.871,330.31ZM1539.933,330.31L1526.274,330.31C1525.998,330.31 1525.774,330.086 1525.774,329.81L1525.774,308.892C1525.774,308.616 1525.998,308.392 1526.274,308.392L1540.131,308.392C1540.407,308.392 1540.631,308.616 1540.631,308.892L1540.631,311.994C1540.631,312.27 1540.407,312.494 1540.131,312.494L1530.337,312.494L1530.337,316.97L1539.405,316.97C1539.682,316.97 1539.905,317.194 1539.905,317.47L1539.905,320.407C1539.905,320.683 1539.682,320.907 1539.405,320.907L1530.337,320.907L1530.337,326.209L1539.933,326.209C1540.209,326.209 1540.433,326.432 1540.433,326.709L1540.433,329.81C1540.433,330.086 1540.209,330.31 1539.933,330.31ZM1559.201,322.447L1562.731,322.447C1562.876,322.447 1563.014,322.51 1563.109,322.62C1563.204,322.73 1563.247,322.875 1563.226,323.019C1562.531,327.815 1558.427,330.64 1552.866,330.64C1549.349,330.64 1546.5,329.456 1544.525,327.447C1542.551,325.438 1541.445,322.597 1541.445,319.252C1541.445,313.177 1545.79,308.062 1552.866,308.062C1558.318,308.062 1562.491,311.017 1563.29,315.67C1563.315,315.816 1563.275,315.964 1563.18,316.077C1563.085,316.19 1562.945,316.255 1562.797,316.255L1559.234,316.255C1559.021,316.255 1558.831,316.12 1558.761,315.918C1557.907,313.448 1555.69,312.263 1552.701,312.263C1548.827,312.263 1546.009,315.193 1546.009,319.252C1546.009,323.315 1548.823,326.44 1552.701,326.44C1555.689,326.44 1557.875,325.254 1558.728,322.784C1558.798,322.583 1558.988,322.447 1559.201,322.447ZM1569.363,330.31L1565.8,330.31C1565.524,330.31 1565.3,330.086 1565.3,329.81L1565.3,308.892C1565.3,308.616 1565.524,308.392 1565.8,308.392L1569.363,308.392C1569.639,308.392 1569.863,308.616 1569.863,308.892L1569.863,317.168L1579.124,317.168L1579.124,308.892C1579.124,308.616 1579.348,308.392 1579.624,308.392L1583.187,308.392C1583.463,308.392 1583.687,308.616 1583.687,308.892L1583.687,329.81C1583.687,330.086 1583.463,330.31 1583.187,330.31L1579.624,330.31C1579.348,330.31 1579.124,330.086 1579.124,329.81L1579.124,321.27L1569.863,321.27L1569.863,329.81C1569.863,330.086 1569.639,330.31 1569.363,330.31ZM1415.988,363.602L1412.26,363.602C1412.096,363.602 1411.943,363.523 1411.85,363.389C1411.756,363.255 1411.734,363.084 1411.79,362.931L1419.411,342.046C1419.483,341.849 1419.671,341.717 1419.881,341.717L1425.292,341.717C1425.502,341.717 1425.69,341.849 1425.762,342.046L1433.383,362.931C1433.439,363.084 1433.417,363.255 1433.323,363.389C1433.23,363.523 1433.077,363.602 1432.913,363.602L1429.152,363.602C1428.942,363.602 1428.754,363.47 1428.682,363.273L1426.888,358.323L1418.252,358.323L1416.458,363.273C1416.386,363.47 1416.198,363.602 1415.988,363.602ZM1419.705,354.255L1425.438,354.255L1422.584,346.356L1419.705,354.255ZM1444.857,363.932C1437.859,363.932 1432.974,359.266 1432.974,352.577C1432.974,346.4 1437.592,341.353 1444.563,341.388C1450.162,341.422 1454.427,343.857 1455.053,348.552C1455.072,348.695 1455.028,348.839 1454.933,348.948C1454.838,349.056 1454.701,349.118 1454.557,349.118L1451.06,349.118C1450.838,349.118 1450.643,348.972 1450.58,348.759C1449.912,346.482 1447.292,345.522 1444.56,345.522C1440.371,345.522 1437.538,348.449 1437.538,352.577C1437.538,356.683 1440.782,359.798 1444.857,359.798C1447.645,359.798 1450.528,358.155 1450.226,354.925L1443.339,354.925C1443.063,354.925 1442.839,354.701 1442.839,354.425L1442.839,351.555C1442.839,351.278 1443.063,351.055 1443.339,351.055L1453.6,351.055C1453.813,351.055 1454.003,351.189 1454.073,351.39C1455.151,354.485 1454.89,357.614 1453.346,359.97C1451.804,362.324 1448.976,363.932 1444.857,363.932ZM1467.477,360.618L1464.195,355.948L1462.184,355.948L1462.184,363.102C1462.184,363.378 1461.96,363.602 1461.684,363.602L1458.121,363.602C1457.844,363.602 1457.621,363.378 1457.621,363.102L1457.621,342.217C1457.621,341.941 1457.844,341.717 1458.121,341.717L1465.544,341.717C1468.42,341.717 1471.024,342.266 1472.654,343.839C1473.771,344.916 1474.457,346.471 1474.457,348.684C1474.457,352.432 1471.963,354.682 1469.32,355.308L1471.658,358.554L1471.665,358.565C1472.155,359.285 1473.024,359.996 1474.551,359.996L1475.211,359.996C1475.487,359.996 1475.711,360.22 1475.711,360.496L1475.711,363.432C1475.711,363.708 1475.487,363.932 1475.211,363.932L1473.594,363.932C1470.592,363.932 1468.892,362.599 1467.48,360.621L1467.477,360.618ZM1462.184,352.011L1464.719,352.011C1465.739,352.011 1466.713,351.968 1467.547,351.767C1468.294,351.586 1468.926,351.281 1469.342,350.725C1469.702,350.242 1469.894,349.58 1469.894,348.684C1469.894,347.937 1469.756,347.372 1469.468,346.953C1469.141,346.477 1468.626,346.203 1467.968,346.034C1467.214,345.839 1466.285,345.786 1465.214,345.786L1462.184,345.786L1462.184,352.011ZM1476.163,352.676C1476.163,345.984 1481.432,341.388 1487.847,341.388C1494.299,341.388 1499.466,345.984 1499.466,352.676C1499.466,359.335 1494.299,363.932 1487.847,363.932C1481.431,363.932 1476.163,359.334 1476.163,352.676ZM1487.847,359.699C1491.852,359.699 1494.87,356.68 1494.87,352.676C1494.87,348.641 1491.852,345.621 1487.847,345.621C1483.811,345.621 1480.759,348.64 1480.759,352.676C1480.759,356.682 1483.811,359.699 1487.847,359.699ZM1391.593,287.554C1391.593,295.153 1388.575,302.442 1383.201,307.814C1377.828,313.187 1370.541,316.207 1362.942,316.207L1326.146,316.205C1325.732,316.205 1325.396,315.869 1325.396,315.455C1325.396,307.856 1328.414,300.57 1333.789,295.195C1339.162,289.822 1346.449,286.804 1354.047,286.804L1390.843,286.804C1391.258,286.804 1391.593,287.14 1391.593,287.554ZM1341.932,323.598C1349.037,323.598 1354.799,329.36 1354.799,336.465L1354.797,384.446C1354.797,384.86 1354.462,385.196 1354.047,385.196C1346.449,385.196 1339.162,382.178 1333.789,376.803C1328.414,371.43 1325.396,364.144 1325.396,356.545L1325.396,324.348C1325.396,323.934 1325.732,323.598 1326.146,323.598L1341.932,323.598ZM1375.099,323.598L1390.843,323.598C1391.258,323.598 1391.593,323.934 1391.593,324.348L1391.593,342.594C1391.593,350.193 1388.575,357.48 1383.201,362.853C1377.828,368.225 1370.541,371.245 1362.942,371.245C1362.528,371.245 1362.192,370.91 1362.192,370.495L1362.19,336.507C1362.19,333.084 1363.55,329.801 1365.972,327.38C1368.393,324.958 1371.677,323.598 1375.099,323.598Z" style="fill:rgb(234,244,240);"/>
        </g>
    </g>
</svg>
